<svg width="40" height="40" viewBox="0 0 40 40" fill="none" xmlns="http://www.w3.org/2000/svg">
<path d="M24.9092 6.25C27.0282 6.8199 28.9603 7.9366 30.512 9.48823C32.0636 11.0399 33.1803 12.972 33.7502 15.091" stroke="#4E7661" stroke-width="2" stroke-linecap="round" stroke-linejoin="round"/>
<path d="M23.6147 11.0808C24.8862 11.4228 26.0454 12.0928 26.9764 13.0238C27.9074 13.9548 28.5774 15.114 28.9194 16.3855" stroke="#4E7661" stroke-width="2" stroke-linecap="round" stroke-linejoin="round"/>
<path d="M14.4494 19.5024C15.746 22.1532 17.8948 24.2922 20.5515 25.5767C20.7459 25.6689 20.9609 25.7088 21.1754 25.6925C21.3899 25.6763 21.5964 25.6045 21.7747 25.4842L25.6866 22.8757C25.8596 22.7603 26.0586 22.69 26.2657 22.6709C26.4728 22.6519 26.6813 22.6849 26.8724 22.7668L34.1907 25.9032C34.4393 26.0088 34.6469 26.1923 34.7821 26.4261C34.9173 26.6599 34.9729 26.9314 34.9405 27.1995C34.7092 29.0095 33.826 30.6732 32.4564 31.8789C31.0869 33.0847 29.3247 33.7499 27.5 33.75C21.8641 33.75 16.4591 31.5112 12.474 27.526C8.48883 23.5409 6.25 18.1359 6.25 12.5C6.2501 10.6753 6.9153 8.91314 8.12106 7.54356C9.32683 6.17397 10.9905 5.29084 12.8005 5.05953C13.0686 5.02708 13.34 5.08265 13.5739 5.21788C13.8077 5.3531 13.9912 5.56065 14.0968 5.80926L17.236 13.1339C17.3172 13.3234 17.3502 13.53 17.3323 13.7353C17.3143 13.9407 17.2458 14.1384 17.1329 14.3108L14.5335 18.2827C14.4152 18.4613 14.3453 18.6676 14.3305 18.8814C14.3158 19.0952 14.3567 19.3092 14.4494 19.5024V19.5024Z" stroke="#4E7661" stroke-width="2" stroke-linecap="round" stroke-linejoin="round"/>
</svg>
